<?xml version="1.0" encoding="UTF-8" standalone="no"?>
<!-- Created with Inkscape (http://www.inkscape.org/) -->

<svg
   xmlns:dc="http://purl.org/dc/elements/1.1/"
   xmlns:cc="http://creativecommons.org/ns#"
   xmlns:rdf="http://www.w3.org/1999/02/22-rdf-syntax-ns#"
   xmlns:svg="http://www.w3.org/2000/svg"
   xmlns="http://www.w3.org/2000/svg"
   xmlns:sodipodi="http://sodipodi.sourceforge.net/DTD/sodipodi-0.dtd"
   xmlns:inkscape="http://www.inkscape.org/namespaces/inkscape"
   width="32"
   height="32"
   viewBox="0 0 32.000002 31.999999"
   id="svg2"
   version="1.1"
   inkscape:version="0.92.4 5da689c313, 2019-01-14"
   sodipodi:docname="toggleglobalcolors.svg">
  <defs
     id="defs4" />
  <sodipodi:namedview
     id="base"
     pagecolor="#ffffff"
     bordercolor="#666666"
     borderopacity="1.0"
     inkscape:pageopacity="0.0"
     inkscape:pageshadow="2"
     inkscape:zoom="15.839192"
     inkscape:cx="22.059509"
     inkscape:cy="7.1611973"
     inkscape:document-units="px"
     inkscape:current-layer="layer1"
     showgrid="false"
     inkscape:snap-grids="false"
     fit-margin-top="0"
     fit-margin-left="0"
     fit-margin-right="0"
     fit-margin-bottom="0"
     units="px"
     inkscape:window-width="1987"
     inkscape:window-height="1031"
     inkscape:window-x="67"
     inkscape:window-y="188"
     inkscape:window-maximized="0">
    <inkscape:grid
       type="xygrid"
       id="grid4136"
       originx="-6.8251832"
       originy="-28.671358" />
  </sodipodi:namedview>
  <metadata
     id="metadata7">
    <rdf:RDF>
      <cc:Work
         rdf:about="">
        <dc:format>image/svg+xml</dc:format>
        <dc:type
           rdf:resource="http://purl.org/dc/dcmitype/StillImage" />
        <dc:title></dc:title>
      </cc:Work>
    </rdf:RDF>
  </metadata>
  <g
     inkscape:label="Layer 1"
     inkscape:groupmode="layer"
     id="layer1"
     transform="translate(-6.8251828,-991.69086)">
    <path
       style="fill:#0c0c0d;fill-opacity:1;fill-rule:evenodd;stroke:none;stroke-width:0.12731013px;stroke-linecap:butt;stroke-linejoin:miter;stroke-opacity:1;opacity:0.8"
       d="M 19.443359 2.7167969 C 18.734417 2.7237969 18.041226 2.7811519 17.378906 2.8886719 C 10.676708 3.9762919 3.106551 8.6302284 1.0820312 15.111328 C -0.1983875 19.210228 1.6725388 24.821131 5.15625 27.332031 C 6.904864 28.192531 7.1841121 28.211956 9.1894531 28.097656 C 11.331197 27.210556 13.11862 20.898081 16.494141 21.488281 C 20.400687 22.753681 14.621813 25.856431 17.378906 27.332031 C 20.136001 28.807631 27.483286 23.139947 29.599609 19.185547 C 31.715932 15.231147 32.046099 10.357201 29.599609 6.9628906 C 27.535382 4.0989306 23.27164 2.6777569 19.443359 2.7167969 z M 18.072266 5.7695312 A 2.5720527 2.5720527 0 0 1 20.642578 8.3417969 A 2.5720527 2.5720527 0 0 1 18.072266 10.914062 A 2.5720527 2.5720527 0 0 1 15.5 8.3417969 A 2.5720527 2.5720527 0 0 1 18.072266 5.7695312 z M 25.841797 7.6875 A 2.5720527 2.5720527 0 0 1 28.412109 10.259766 A 2.5720527 2.5720527 0 0 1 25.841797 12.832031 A 2.5720527 2.5720527 0 0 1 23.269531 10.259766 A 2.5720527 2.5720527 0 0 1 25.841797 7.6875 z M 9.9609375 9.3691406 A 2.5720527 2.5720527 0 0 1 12.533203 11.941406 A 2.5720527 2.5720527 0 0 1 9.9609375 14.513672 A 2.5720527 2.5720527 0 0 1 7.3886719 11.941406 A 2.5720527 2.5720527 0 0 1 9.9609375 9.3691406 z M 19.730469 15.332031 C 21.15104 15.332031 22.302824 16.454744 22.302734 17.839844 C 22.302683 19.224744 21.150942 20.347656 19.730469 20.347656 C 18.309996 20.347656 17.158255 19.224744 17.158203 17.839844 C 17.158113 16.454744 18.309895 15.332031 19.730469 15.332031 z M 5.5976562 16.080078 A 2.5720527 2.5720527 0 0 1 8.1699219 18.652344 A 2.5720527 2.5720527 0 0 1 5.5976562 21.222656 A 2.5720527 2.5720527 0 0 1 3.0253906 18.652344 A 2.5720527 2.5720527 0 0 1 5.5976562 16.080078 z "
       transform="translate(6.8251828,991.69086)"
       id="path4140" />
  </g>
</svg>
